HIERARCHY
ROOT Hips
{
 OFFSET 0.000000 0.000000 0.000000
 CHANNELS 6 Xposition Yposition Zposition Yrotation Xrotation Zrotation
 JOINT Chest
 {
  OFFSET 0.000000 9.585900 0.002600
  CHANNELS 3 Yrotation Xrotation Zrotation
  JOINT Chest2
  {
   OFFSET 0.000000 9.601200 -0.005300
   CHANNELS 3 Yrotation Xrotation Zrotation
   JOINT Chest3
   {
    OFFSET 0.000000 9.561800 0.000000
    CHANNELS 3 Yrotation Xrotation Zrotation
    JOINT Chest4
    {
     OFFSET 0.000000 9.552100 0.000000
     CHANNELS 3 Yrotation Xrotation Zrotation
     JOINT Neck
     {
      OFFSET 0.000000 14.453000 0.000000
      CHANNELS 3 Yrotation Xrotation Zrotation
      JOINT Head
      {
       OFFSET 0.000000 8.936500 -0.011300
       CHANNELS 3 Yrotation Xrotation Zrotation
       End Site
       {
        OFFSET 0.000000 17.073600 -0.006000
       }
      }
     }
     JOINT RightCollar
     {
      OFFSET -2.921100 9.558500 0.000000
      CHANNELS 3 Yrotation Xrotation Zrotation
      JOINT RightShoulder
      {
       OFFSET -13.519700 0.000000 0.000000
       CHANNELS 3 Yrotation Xrotation Zrotation
       JOINT RightElbow
       {
        OFFSET 0.000000 -29.696600 0.000000
        CHANNELS 3 Yrotation Xrotation Zrotation
        JOINT RightWrist
        {
         OFFSET 0.000000 -24.004700 0.000000
         CHANNELS 3 Yrotation Xrotation Zrotation
         End Site
         {
          OFFSET 0.000000 -17.728500 0.000000
         }
        }
       }
      }
     }
     JOINT LeftCollar
     {
      OFFSET 2.921100 9.558500 0.000000
      CHANNELS 3 Yrotation Xrotation Zrotation
      JOINT LeftShoulder
      {
       OFFSET 13.519700 0.000000 0.000000
       CHANNELS 3 Yrotation Xrotation Zrotation
       JOINT LeftElbow
       {
        OFFSET 0.000000 -29.696600 0.000000
        CHANNELS 3 Yrotation Xrotation Zrotation
        JOINT LeftWrist
        {
         OFFSET 0.000000 -24.004700 0.000000
         CHANNELS 3 Yrotation Xrotation Zrotation
         End Site
         {
          OFFSET 0.000000 -17.728500 0.000000
         }
        }
       }
      }
     }
    }
   }
  }
 }
 JOINT RightHip
 {
  OFFSET -7.771700 -0.012900 -0.001300
  CHANNELS 3 Yrotation Xrotation Zrotation
  JOINT RightKnee
  {
   OFFSET 0.000000 -40.869800 0.001200
   CHANNELS 3 Yrotation Xrotation Zrotation
   JOINT RightAnkle
   {
    OFFSET 0.000000 -39.717900 0.002100
    CHANNELS 3 Yrotation Xrotation Zrotation
    JOINT RightToe
    {
     OFFSET 0.000000 -4.965400 11.033500
     CHANNELS 3 Yrotation Xrotation Zrotation
     End Site
     {
      OFFSET 0.000000 -1.423100 5.872300
     }
    }
   }
  }
 }
 JOINT LeftHip
 {
  OFFSET 7.771700 -0.012900 -0.001300
  CHANNELS 3 Yrotation Xrotation Zrotation
  JOINT LeftKnee
  {
   OFFSET 0.000000 -40.869800 0.001200
   CHANNELS 3 Yrotation Xrotation Zrotation
   JOINT LeftAnkle
   {
    OFFSET 0.000000 -39.717900 0.002100
    CHANNELS 3 Yrotation Xrotation Zrotation
    JOINT LeftToe
    {
     OFFSET 0.000000 -4.965400 11.033500
     CHANNELS 3 Yrotation Xrotation Zrotation
     End Site
     {
      OFFSET 0.000000 -1.423100 5.872300
     }
    }
   }
  }
 }
}
MOTION
Frames: 13
Frame Time: 0.008333
-5.592511 55.233680 -24.297223 179.728712 -17.011347 -1.456465 0.852668 15.994512 0.870184 0.072558 1.564586 0.088639 0.126836 2.631327 0.151184 0.773801 14.188892 0.898643 -1.382877 13.810431 -2.114654 -0.884214 -11.179421 -1.903879 -0.248781 -0.429827 1.612720 3.228462 -4.457476 -7.929956 -70.273003 -52.620326 104.340853 -15.510087 0.041556 4.149403 -5.904618 -1.023794 3.913371 4.909279 -8.639211 4.784803 57.945468 -46.804097 -97.338783 12.220252 -16.310297 7.652941 -0.320832 -57.775358 12.956849 -116.761591 88.680542 -121.449945 -10.615960 -22.380112 14.098725 0.011306 -0.044063 -0.000574 9.630166 -54.774405 -5.440318 114.162714 77.441443 112.026821 -6.549116 -23.497494 0.538378 0.054333 0.221257 0.023826
-5.592161 55.233802 -24.297676 179.735993 -17.003997 -1.459574 0.852072 15.999254 0.875187 0.069046 1.555215 0.086639 0.131815 2.644066 0.152796 0.775870 14.188668 0.896892 -1.295231 13.832340 -2.103003 -0.839975 -11.176929 -1.904155 -0.257915 -0.437173 1.608649 3.215934 -4.451238 -7.932611 -70.256859 -52.571495 104.333802 -15.584620 0.071344 4.156915 -5.903580 -1.016593 3.931274 4.971273 -8.638556 4.754668 57.954587 -46.768677 -97.354156 12.251546 -16.343258 7.635729 -0.318483 -57.781845 12.947236 -116.751766 88.682806 -121.445458 -10.547925 -22.388722 14.087988 0.009657 -0.045140 0.000093 9.620765 -54.783477 -5.436406 114.152815 77.441619 112.017742 -6.553683 -23.493990 0.533381 0.057085 0.219055 0.027811
-5.593309 55.233832 -24.298172 179.737629 -16.995463 -1.454262 0.853019 16.004052 0.872624 0.070553 1.556579 0.086463 0.131464 2.646279 0.152935 0.772753 14.176975 0.894545 -1.208166 13.865532 -2.092958 -0.795325 -11.175497 -1.906700 -0.260788 -0.417691 1.584489 3.201982 -4.464625 -7.918675 -70.235732 -52.525912 104.324022 -15.643254 0.094541 4.162932 -5.899681 -1.002183 3.952050 4.978383 -8.652875 4.730964 57.999918 -46.708384 -97.347406 12.261793 -16.348749 7.610246 -0.308511 -57.790535 12.937560 -116.708797 88.677571 -121.401864 -10.552426 -22.391696 14.085983 0.080494 -0.034944 0.010139 9.631068 -54.790817 -5.451327 114.148180 77.441251 112.013863 -6.550525 -23.492526 0.532882 0.062059 0.212278 0.027754
-5.591030 55.234588 -24.300904 179.729149 -16.999982 -1.468955 0.868034 16.014969 0.892090 0.076434 1.579505 0.089319 0.127656 2.634337 0.150591 0.778272 14.180077 0.896149 -1.151046 13.875976 -2.086983 -0.734909 -11.167912 -1.913328 -0.271623 -0.414706 1.560313 3.166340 -4.449820 -7.935766 -70.221721 -52.449234 104.353029 -15.657225 0.101652 4.172399 -5.891402 -0.986914 3.983438 4.994478 -8.669440 4.689802 58.037171 -46.653290 -97.359582 12.299673 -16.354262 7.577897 -0.325928 -57.784367 12.974892 -116.729395 88.683294 -121.416322 -10.592376 -22.389386 14.083042 0.010303 -0.035869 0.009996 9.615899 -54.788213 -5.421309 114.153422 77.439835 112.018988 -6.534389 -23.463360 0.534727 0.043922 0.177710 0.020110
-5.592268 55.234506 -24.301194 179.726917 -16.987454 -1.467288 0.870810 16.010241 0.891790 0.076544 1.579476 0.088929 0.131664 2.642448 0.151164 0.783328 14.200755 0.898857 -1.099289 13.868909 -2.082621 -0.680614 -11.159475 -1.920352 -0.278336 -0.428284 1.542737 3.152863 -4.460255 -7.946328 -70.191134 -52.400255 104.336030 -15.659150 0.098735 4.176799 -5.895615 -1.013184 3.993087 5.022241 -8.649706 4.669048 58.071213 -46.605928 -97.384139 12.364676 -16.366463 7.546378 -0.316991 -57.798305 12.973986 -116.659126 88.683297 -121.340703 -10.634018 -22.384512 14.086314 0.009091 -0.033486 0.014204 9.622903 -54.799945 -5.427962 114.159955 77.444498 112.024794 -6.529176 -23.464417 0.537285 0.042454 0.176818 0.018605
-5.594291 55.235068 -24.303512 179.726193 -16.986235 -1.464086 0.872812 16.021619 0.888497 0.075781 1.573865 0.089434 0.137177 2.645246 0.152289 0.779764 14.201471 0.899375 -1.044451 13.886047 -2.080385 -0.634094 -11.148937 -1.927482 -0.277571 -0.415184 1.527340 3.146421 -4.473944 -7.963638 -70.168995 -52.365993 104.323991 -15.648881 0.087741 4.179806 -5.895466 -1.013561 4.001466 5.036508 -8.644301 4.659532 58.107397 -46.538569 -97.401755 12.406683 -16.360792 7.520210 -0.303904 -57.799907 12.968094 -116.631683 88.681664 -121.304830 -10.686661 -22.379728 14.091782 0.007536 -0.032258 0.017158 9.630969 -54.800539 -5.435460 114.193575 77.448885 112.052951 -6.518553 -23.464207 0.545469 0.035821 0.171261 0.015217
-5.596543 55.235557 -24.305468 179.732862 -16.981367 -1.464176 0.876909 16.025280 0.890929 0.085589 1.587993 0.089131 0.119715 2.625433 0.152166 0.792604 14.214269 0.902810 -1.017643 13.890776 -2.079349 -0.580300 -11.130340 -1.939406 -0.293705 -0.412393 1.514848 3.149170 -4.485578 -7.985688 -70.120250 -52.371181 104.277595 -15.652001 0.054657 4.201363 -5.900303 -0.996001 4.050683 5.050298 -8.659487 4.612285 58.142955 -46.462470 -97.425655 12.444917 -16.349552 7.497624 -0.294427 -57.804983 12.966499 -116.273196 88.667305 -120.934111 -10.754899 -22.372191 14.102711 -0.018232 -0.032003 0.019381 9.636374 -54.804902 -5.446104 114.203413 77.450995 112.063684 -6.516891 -23.462965 0.550125 0.035577 0.167930 0.014391
-5.598579 55.235667 -24.305808 179.738939 -16.965366 -1.467371 0.881327 16.021468 0.894750 0.082001 1.585837 0.088284 0.124560 2.629058 0.153851 0.797194 14.216273 0.906050 -1.018569 13.881834 -2.078686 -0.505447 -11.097964 -1.960970 -0.307091 -0.407616 1.496240 3.152821 -4.501769 -8.001583 -70.117216 -52.378440 104.269810 -15.659418 0.045062 4.213226 -5.913038 -1.004895 4.066324 5.068259 -8.654010 4.605506 58.168279 -46.378330 -97.451045 12.476120 -16.335080 7.481519 -0.283742 -57.821528 12.964467 -116.024000 88.659890 -120.674600 -10.796391 -22.365825 14.111401 0.015119 -0.028198 0.020644 9.643886 -54.819253 -5.458109 114.197106 77.451469 112.061898 -6.517851 -23.466036 0.553776 0.031979 0.168962 0.013698
-5.601089 55.236432 -24.308067 179.741997 -16.960489 -1.467916 0.885407 16.030059 0.893752 0.077113 1.575778 0.090271 0.130523 2.639678 0.152562 0.801378 14.216982 0.909529 -0.982028 13.894577 -2.080197 -0.472835 -11.083540 -1.974334 -0.317369 -0.408945 1.484815 3.160689 -4.510231 -8.022324 -70.125710 -52.390950 104.271255 -15.650525 0.054449 4.223476 -5.920534 -1.012897 4.082681 5.085071 -8.653631 4.598693 58.179926 -46.312665 -97.471487 12.520043 -16.320983 7.471133 -0.255471 -57.827116 12.933353 -116.154900 88.660462 -120.807020 -10.701574 -22.371176 14.097752 0.020119 -0.037266 0.017130 9.653154 -54.820397 -5.470617 114.178149 77.449650 112.045992 -6.514472 -23.468440 0.556860 0.024679 0.170216 0.011737
-5.603308 55.237029 -24.309628 179.741730 -16.950617 -1.469430 0.895613 16.030592 0.896898 0.077828 1.575650 0.090750 0.131720 2.639548 0.153141 0.822490 14.225268 0.917981 -0.934610 13.921424 -2.090320 -0.479535 -11.085661 -1.976771 -0.347601 -0.419660 1.476160 3.168588 -4.511895 -8.046190 -70.148295 -52.384209 104.288981 -15.611312 0.089066 4.231385 -5.942647 -1.019897 4.113653 5.088872 -8.662007 4.570805 58.182543 -46.290770 -97.478645 12.594952 -16.312915 7.463147 -0.243827 -57.837560 12.919488 -116.226001 88.663413 -120.883703 -10.609041 -22.373013 14.078910 0.011503 -0.046934 0.015783 9.659200 -54.827330 -5.476995 114.165248 77.441295 112.030983 -6.513355 -23.475345 0.561957 0.019199 0.172238 0.008767
-5.605244 55.237671 -24.311198 179.743945 -16.940186 -1.472674 0.900971 16.030475 0.900644 0.087457 1.580528 0.090994 0.131442 2.638383 0.154174 0.823172 14.217636 0.923184 -0.940242 13.921482 -2.092750 -0.417726 -11.053636 -2.011715 -0.361287 -0.422444 1.467296 3.172974 -4.511125 -8.069807 -70.166785 -52.377154 104.305190 -15.608028 0.099856 4.239406 -5.953594 -1.017494 4.143626 5.106785 -8.673346 4.554008 58.187960 -46.200714 -97.497413 12.603925 -16.285855 7.458030 -0.234527 -57.847846 12.911785 -116.357409 88.670169 -121.017902 -10.549931 -22.373957 14.065571 0.013129 -0.051612 0.015750 9.662818 -54.832547 -5.481277 114.131814 77.435834 111.999720 -6.516673 -23.483417 0.561345 0.015802 0.178418 0.009959
-5.610761 55.238130 -24.312735 179.750750 -16.928691 -1.454558 0.897517 16.023739 0.881127 0.083112 1.578688 0.092101 0.129657 2.637014 0.154122 0.834332 14.220354 0.927907 -0.913221 13.939258 -2.104910 -0.426008 -11.055603 -2.012243 -0.372758 -0.425869 1.462422 3.175708 -4.512889 -8.095558 -70.155290 -52.392639 104.301662 -15.627034 0.096107 4.248968 -5.957496 -1.018669 4.166914 5.130173 -8.688905 4.546281 58.176926 -46.093900 -97.509628 12.591527 -16.253925 7.452534 -0.194672 -57.860659 12.859568 -116.638202 88.670436 -121.297455 -10.515326 -22.379107 14.058164 0.014733 -0.052325 0.016345 9.693189 -54.834578 -5.522534 114.106228 77.435044 111.976770 -6.532360 -23.523401 0.558698 0.039052 0.214399 0.018144
-5.611801 55.238706 -24.314663 179.751152 -16.919725 -1.459851 0.905986 16.020262 0.889112 0.079936 1.575841 0.092007 0.135270 2.639948 0.155465 0.829059 14.215921 0.928242 -0.840314 13.978012 -2.137949 -0.477136 -11.074396 -1.984304 -0.374149 -0.427590 1.458562 3.174972 -4.519193 -8.120408 -70.140793 -52.401387 104.296177 -15.615307 0.179694 4.283128 -5.954411 -1.027405 4.208865 5.150393 -8.694402 4.527965 58.161943 -46.036427 -97.516648 12.625637 -16.231859 7.441993 -0.189830 -57.869332 12.853497 -116.769705 88.678040 -121.423763 -10.477001 -22.381989 14.045252 0.016080 -0.052062 0.015735 9.688220 -54.842677 -5.515985 114.095206 77.431134 111.966535 -6.536958 -23.525591 0.557036 0.041459 0.214959 0.019260
